Coordinates
version=1
nRows=19
nColumns=24
inDegrees=yes

Units are S.I. units (second, meters, Newtons, ...)
Angles are in degrees.

endheader
time	pelvis_tilt	pelvis_list	pelvis_rotation	pelvis_tx	pelvis_ty	pelvis_tz	hip_flexion_r	hip_adduction_r	hip_rotation_r	knee_angle_r	ankle_angle_r	subtalar_angle_r	mtp_angle_r	hip_flexion_l	hip_adduction_l	hip_rotation_l	knee_angle_l	ankle_angle_l	subtalar_angle_l	mtp_angle_l	lumbar_extension	lumbar_bending	lumbar_rotation
      5.04000000	     -2.63277791	     -1.98670539	     -1.77985325	      1.24275148	      0.94906441	     -0.15251579	      0.78797594	      6.28898790	     -2.38379959	     -9.62073807	     15.33244693	     -5.71281720	      0.00000000	     32.90387170	     -4.79975709	     -8.27671514	    -44.51512772	      8.68323970	     -4.75805420	      0.00000000	    -23.30284841	     -1.47043960	      2.75595598
      5.05000000	     -2.67033664	     -2.15702369	     -2.34196006	      1.25519289	      0.94827379	     -0.15280018	     -0.50856448	      6.42113836	     -2.00853230	     -8.65699768	     15.39453706	     -5.64206356	      0.00000000	     32.90426341	     -5.08557040	     -8.59152985	    -40.24335904	      8.78961405	     -4.28310719	      0.00000000	    -23.38610996	     -1.38194199	      3.37160803
      5.06000000	     -2.48753561	     -2.42869334	     -2.91821244	      1.26778954	      0.94754124	     -0.15315094	     -2.07355646	      6.62244677	     -1.66313789	     -7.66642464	     15.35251011	     -5.59473467	      0.00000000	     32.48584189	     -5.44838182	     -8.85293520	    -35.74951128	      8.70692497	     -3.75363748	      0.00000000	    -23.74260051	     -1.21346906	      4.11432106
      5.07000000	     -2.30482751	     -2.80208382	     -3.57941806	      1.28065067	      0.94651052	     -0.15338951	     -3.65659317	      6.89590403	     -1.35596228	     -6.70324608	     15.35131499	     -5.41045606	      0.00000000	     31.91503889	     -5.96272862	     -9.22512454	    -31.16874321	      8.47673006	     -3.16191819	      0.00000000	    -24.05874178	     -0.98018955	      4.99349099
      5.08000000	     -2.03229583	     -3.28260024	     -4.28596482	      1.29370878	      0.94531971	     -0.15364024	     -5.34714487	      7.22998065	     -1.01776516	     -5.78713981	     15.34523471	     -5.16060331	      0.00000000	     31.13057520	     -6.58083066	     -9.62782008	    -26.58343974	      8.08015298	     -2.70297393	      0.00000000	    -24.46940691	     -0.66681299	      5.99411476
      5.09000000	     -1.70845266	     -3.82960734	     -5.00521912	      1.30698611	      0.94393373	     -0.15392973	     -7.09549668	      7.57821375	     -0.63956978	     -4.93791804	     15.35711541	     -4.86061940	      0.00000000	     30.21258433	     -7.24836276	    -10.03872367	    -22.10540165	      7.55512214	     -2.41898573	      0.00000000	    -24.91937971	     -0.30890932	      7.05445249
      5.10000000	     -1.28134134	     -4.44616739	     -5.68307312	      1.32046183	      0.94244275	     -0.15428278	     -8.94651729	      7.94280459	     -0.24711748	     -4.17125242	     15.35411690	     -4.54446416	      0.00000000	     29.15641591	     -7.94995853	    -10.42517269	    -17.86629407	      7.03857375	     -2.29027752	      0.00000000	    -25.47628565	      0.09177674	      8.11157212
      5.11000000	     -1.06054027	     -5.02787978	     -6.45858772	      1.33407315	      0.94054925	     -0.15457242	    -10.48818152	      8.21948555	      0.24213394	     -3.62664386	     15.47483724	     -4.11790059	      0.00000000	     28.28914532	     -8.65785619	    -10.83130152	    -13.94381626	      6.40547155	     -2.49898543	      0.00000000	    -25.75890025	      0.41747391	      9.28028647
      5.12000000	     -0.64644877	     -5.61695659	     -7.12762215	      1.34782856	      0.93878197	     -0.15497236	    -12.18965863	      8.44586974	      0.71643538	     -3.20455977	     15.56775768	     -3.70802112	      0.00000000	     27.25193027	     -9.31706079	    -11.20396995	    -10.48519328	      5.95747054	     -2.83213796	      0.00000000	    -26.26699222	      0.73438112	     10.29642311
      5.13000000	     -0.40020929	     -6.12596183	     -7.80445466	      1.36168156	      0.93677721	     -0.15534824	    -13.58478714	      8.56463681	      1.19635543	     -3.03305046	     15.75053591	     -3.24018294	      0.00000000	     26.44099080	     -9.91779075	    -11.50527525	     -7.58291168	      5.55366304	     -3.41652921	      0.00000000	    -26.54796332	      0.95162107	     11.28566704
      5.14000000	     -0.34231909	     -6.55103140	     -8.47872965	      1.37560776	      0.93456422	     -0.15570664	    -14.63598432	      8.59104610	      1.67405656	     -3.12796534	     16.00324233	     -2.72714339	      0.00000000	     25.94409814	    -10.47070865	    -11.80480139	     -5.40045550	      5.33176334	     -4.12652834	      0.00000000	    -26.58228326	      1.09208356	     12.18694240
      5.15000000	     -0.12468805	     -6.81920388	     -9.01582748	      1.38971261	      0.93265823	     -0.15615355	    -15.72909789	      8.43787976	      1.96975599	     -3.41290123	     16.25644812	     -2.20393920	      0.00000000	     25.39485757	    -10.81943526	    -11.94910434	     -3.95054174	      5.29553511	     -4.91181793	      0.00000000	    -26.76351389	      1.03721052	     12.85187113
      5.16000000	      0.00414666	     -6.99209340	     -9.44677672	      1.40389962	      0.93075463	     -0.15677683	    -16.58795430	      8.20273612	      2.16236862	     -3.91953320	     16.49517502	     -1.62073639	      0.00000000	     25.14575273	    -11.05539885	    -12.07743546	     -3.37712258	      5.42935214	     -5.69305142	      0.00000000	    -26.81998447	      0.94424768	     13.30764138
      5.17000000	      0.17055234	     -6.99902807	     -9.73951270	      1.41832283	      0.92900592	     -0.15760510	    -17.33926695	      7.80772076	      2.11411844	     -4.64371263	     16.75898416	     -0.94134730	      0.00000000	     25.03762312	    -11.08166122	    -12.03045286	     -3.63174707	      5.70806941	     -6.48511012	      0.00000000	    -26.86666837	      0.70615594	     13.47413345
      5.18000000	      0.28944154	     -6.91677363	     -9.92617998	      1.43290618	      0.92732498	     -0.15864912	    -17.92171639	      7.34017813	      1.96268346	     -5.54987573	     16.93561651	     -0.23792148	      0.00000000	     25.17271655	    -10.99080072	    -11.92047852	     -4.67467988	      6.00346541	     -7.18792045	      0.00000000	    -26.82510535	      0.43352807	     13.48263669
      5.19000000	      0.42076423	     -6.66352778	     -9.85636632	      1.44790618	      0.92569611	     -0.16005914	    -18.44012413	      6.75507225	      1.52806007	     -6.54935455	     17.01490067	      0.47790541	      0.00000000	     25.48716230	    -10.62645118	    -11.66223475	     -6.36122977	      6.17498299	     -7.77049507	      0.00000000	    -26.70918163	      0.08160239	     13.07851372
      5.20000000	      0.56483365	     -6.34966303	     -9.67957402	      1.46307088	      0.92421599	     -0.16171924	    -18.87907134	      6.11961670	      1.03782646	     -7.70653311	     16.95956742	      1.21380501	      0.00000000	     25.90340765	    -10.15145421	    -11.28981796	     -8.49982744	      6.05385624	     -8.33725056	      0.00000000	    -26.59426148	     -0.28200750	     12.52696768
      5.21000000	      0.73932226	     -6.00217341	     -9.35582099	      1.47834469	      0.92292659	     -0.16369004	    -19.24520645	      5.47115062	      0.37361635	     -9.04760914	     16.76836376	      2.05360208	      0.00000000	     26.36594990	     -9.56125088	    -10.70050894	    -10.88644496	      5.48665599	     -9.01470039	      0.00000000	    -26.52617233	     -0.61424493	     11.76466200
      5.22000000	      0.92592668	     -5.55111927	     -8.86858263	      1.49390924	      0.92180419	     -0.16588404	    -19.57895673	      4.76555752	     -0.31952187	    -10.46246077	     16.32239009	      2.76612358	      0.00000000	     26.85132797	     -8.78547983	    -10.02519957	    -13.35702264	      4.53908896	     -9.74304721	      0.00000000	    -26.42273444	     -0.99836746	     10.81486320
